<svg xmlns="http://www.w3.org/2000/svg" width="200" height="200" viewBox="0 0 200 200">
    <!-- Gear icon -->
    <path d="M100 65c-19.33 0-35 15.67-35 35s15.67 35 35 35 35-15.67 35-35-15.67-35-35-35zm0 60c-13.785 0-25-11.215-25-25s11.215-25 25-25 25 11.215 25 25-11.215 25-25 25z" fill="#6366F1"/>
    <path d="M190 85v30l-29.795 4.205c-1.405 4.725-3.245 9.245-5.505 13.505l17.7 24.295-21.205 21.205-24.295-17.7c-4.26 2.26-8.78 4.1-13.505 5.505L108.995 195h-30l-4.205-29.795c-4.725-1.405-9.245-3.245-13.505-5.505l-24.295 17.7-21.205-21.205 17.7-24.295c-2.26-4.26-4.1-8.78-5.505-13.505L-1 113.995v-30l29.795-4.205c1.405-4.725 3.245-9.245 5.505-13.505l-17.7-24.295 21.205-21.205 24.295 17.7c4.26-2.26 8.78-4.1 13.505-5.505L80 5h30l4.205 29.795c4.725 1.405 9.245 3.245 13.505 5.505l24.295-17.7 21.205 21.205-17.7 24.295c2.26 4.26 4.1 8.78 5.505 13.505L190 85z" fill="none" stroke="#6366F1" stroke-width="4"/>
</svg>
